# Blender 4.4.3
# www.blender.org
mtllib modelka1.mtl
o Base
v 0.404818 0.241543 -0.369033
v 0.407552 -0.243175 -0.371525
v 0.404818 0.241543 0.369033
v 0.404818 -0.241543 0.369033
v -0.404815 0.241543 -0.369019
v -0.404818 -0.241543 -0.369033
v -0.404818 0.241543 0.369033
v -0.404818 -0.241543 0.369033
vn -0.0000 1.0000 -0.0000
vn -0.0000 -0.0000 1.0000
vn -1.0000 -0.0000 -0.0000
vn -0.0010 -1.0000 0.0011
vn 1.0000 0.0028 0.0018
vn -0.0015 0.0026 -1.0000
vt 0.625000 0.500000
vt 0.875000 0.500000
vt 0.875000 0.750000
vt 0.625000 0.750000
vt 0.375000 0.750000
vt 0.625000 1.000000
vt 0.375000 1.000000
vt 0.375000 0.000000
vt 0.625000 0.000000
vt 0.625000 0.250000
vt 0.375000 0.250000
vt 0.125000 0.500000
vt 0.375000 0.500000
vt 0.125000 0.750000
s 0
usemtl Material
f 1/1/1 5/2/1 7/3/1 3/4/1
f 4/5/2 3/4/2 7/6/2 8/7/2
f 8/8/3 7/9/3 5/10/3 6/11/3
f 6/12/4 2/13/4 4/5/4 8/14/4
f 2/13/5 1/1/5 3/4/5 4/5/5
f 6/11/6 5/10/6 1/1/6 2/13/6
o XO2
v 0.667068 0.429427 -0.036481
v 0.667068 0.794098 -0.036481
v 0.667068 0.429427 -0.219473
v 0.667068 0.794098 -0.219473
v -0.292111 0.429427 -0.036481
v -0.292111 0.794098 -0.036481
v -0.292111 0.429427 -0.219473
v -0.292111 0.794098 -0.219473
vn 1.0000 -0.0000 -0.0000
vn -0.0000 -0.0000 -1.0000
vn -1.0000 -0.0000 -0.0000
vn -0.0000 -0.0000 1.0000
vn -0.0000 -1.0000 -0.0000
vn -0.0000 1.0000 -0.0000
vt 0.375000 0.000000
vt 0.625000 0.000000
vt 0.625000 0.250000
vt 0.375000 0.250000
vt 0.625000 0.500000
vt 0.375000 0.500000
vt 0.625000 0.750000
vt 0.375000 0.750000
vt 0.625000 1.000000
vt 0.375000 1.000000
vt 0.125000 0.500000
vt 0.125000 0.750000
vt 0.875000 0.500000
vt 0.875000 0.750000
s 0
usemtl Material.005
f 9/15/7 11/18/7 12/17/7 10/16/7
f 11/18/8 15/20/8 16/19/8 12/17/8
f 15/20/9 13/22/9 14/21/9 16/19/9
f 13/22/10 9/24/10 10/23/10 14/21/10
f 11/25/11 9/26/11 13/22/11 15/20/11
f 16/19/12 14/21/12 10/28/12 12/27/12
o palka
v -0.113759 1.422335 0.103798
v -0.113759 0.169305 0.103798
v -0.113759 1.422335 -0.037483
v -0.113759 0.169305 -0.037483
v 0.052742 1.422335 0.103798
v 0.052742 0.169305 0.103798
v 0.052742 1.422335 -0.037483
v 0.052742 0.169305 -0.037483
vn -1.0000 -0.0000 -0.0000
vn -0.0000 -0.0000 -1.0000
vn 1.0000 -0.0000 -0.0000
vn -0.0000 -0.0000 1.0000
vn -0.0000 1.0000 -0.0000
vn -0.0000 -1.0000 -0.0000
vt 0.375000 0.000000
vt 0.625000 0.000000
vt 0.625000 0.250000
vt 0.375000 0.250000
vt 0.625000 0.500000
vt 0.375000 0.500000
vt 0.625000 0.750000
vt 0.375000 0.750000
vt 0.625000 1.000000
vt 0.375000 1.000000
vt 0.125000 0.500000
vt 0.125000 0.750000
vt 0.875000 0.500000
vt 0.875000 0.750000
s 0
usemtl Material.003
f 17/29/13 19/32/13 20/31/13 18/30/13
f 19/32/14 23/34/14 24/33/14 20/31/14
f 23/34/15 21/36/15 22/35/15 24/33/15
f 21/36/16 17/38/16 18/37/16 22/35/16
f 19/39/17 17/40/17 21/36/17 23/34/17
f 24/33/18 22/35/18 18/42/18 20/41/18
o XO1
v 0.000000 -0.233776 -0.249546
v 0.000000 0.332973 -0.249546
v 0.047143 -0.233776 -0.244751
v 0.047143 0.332973 -0.244751
v 0.092475 -0.233776 -0.230551
v 0.092475 0.332973 -0.230551
v 0.134252 -0.233776 -0.207490
v 0.134252 0.332973 -0.207490
v 0.170871 -0.233776 -0.176456
v 0.170871 0.332973 -0.176456
v 0.200923 -0.233776 -0.138641
v 0.200923 0.332973 -0.138641
v 0.223253 -0.233776 -0.095497
v 0.223253 0.332973 -0.095497
v 0.237004 -0.233776 -0.048684
v 0.237004 0.332973 -0.048684
v 0.241648 -0.233776 0.000000
v 0.241648 0.332973 0.000000
v 0.237004 -0.233776 0.048684
v 0.237004 0.332973 0.048684
v 0.223253 -0.233776 0.095497
v 0.223253 0.332973 0.095497
v 0.200923 -0.233776 0.138641
v 0.200923 0.332973 0.138641
v 0.170871 -0.233776 0.176456
v 0.170871 0.332973 0.176456
v 0.134252 -0.233776 0.207490
v 0.134252 0.332973 0.207490
v 0.092475 -0.233776 0.230551
v 0.092475 0.332973 0.230551
v 0.047143 -0.233776 0.244751
v 0.047143 0.332973 0.244751
v 0.000000 -0.233776 0.249546
v 0.000000 0.332973 0.249546
v -0.047143 -0.233776 0.244751
v -0.047143 0.332973 0.244751
v -0.092475 -0.233776 0.230551
v -0.092475 0.332973 0.230551
v -0.134252 -0.233776 0.207490
v -0.134252 0.332973 0.207490
v -0.170871 -0.233776 0.176456
v -0.170871 0.332973 0.176456
v -0.200923 -0.233776 0.138641
v -0.200923 0.332973 0.138641
v -0.223253 -0.233776 0.095497
v -0.223253 0.332973 0.095497
v -0.237004 -0.233776 0.048684
v -0.237004 0.332973 0.048684
v -0.241648 -0.233776 0.000000
v -0.241648 0.332973 0.000000
v -0.237004 -0.233776 -0.048684
v -0.237004 0.332973 -0.048684
v -0.223253 -0.233776 -0.095497
v -0.223253 0.332973 -0.095497
v -0.200923 -0.233776 -0.138641
v -0.200923 0.332973 -0.138641
v -0.170871 -0.233776 -0.176456
v -0.170871 0.332973 -0.176456
v -0.134252 -0.233776 -0.207490
v -0.134252 0.332973 -0.207490
v -0.092475 -0.233776 -0.230551
v -0.092475 0.332973 -0.230551
v -0.047143 -0.233776 -0.244751
v -0.047143 0.332973 -0.244751
vn 0.1012 -0.0000 -0.9949
vn 0.2989 -0.0000 -0.9543
vn 0.4833 -0.0000 -0.8755
vn 0.6465 -0.0000 -0.7629
vn 0.7829 -0.0000 -0.6222
vn 0.8881 -0.0000 -0.4597
vn 0.9595 -0.0000 -0.2818
vn 0.9955 -0.0000 -0.0949
vn 0.9955 -0.0000 0.0949
vn 0.9595 -0.0000 0.2818
vn 0.8881 -0.0000 0.4597
vn 0.7829 -0.0000 0.6222
vn 0.6465 -0.0000 0.7629
vn 0.4833 -0.0000 0.8755
vn 0.2989 -0.0000 0.9543
vn 0.1012 -0.0000 0.9949
vn -0.1012 -0.0000 0.9949
vn -0.2989 -0.0000 0.9543
vn -0.4833 -0.0000 0.8755
vn -0.6465 -0.0000 0.7629
vn -0.7829 -0.0000 0.6222
vn -0.8881 -0.0000 0.4597
vn -0.9595 -0.0000 0.2818
vn -0.9955 -0.0000 0.0949
vn -0.9955 -0.0000 -0.0949
vn -0.9595 -0.0000 -0.2818
vn -0.8881 -0.0000 -0.4597
vn -0.7829 -0.0000 -0.6222
vn -0.6465 -0.0000 -0.7629
vn -0.4833 -0.0000 -0.8755
vn -0.0000 1.0000 -0.0000
vn -0.2989 -0.0000 -0.9543
vn -0.1012 -0.0000 -0.9949
vn -0.0000 -1.0000 -0.0000
vt 1.000000 0.500000
vt 1.000000 1.000000
vt 0.968750 1.000000
vt 0.968750 0.500000
vt 0.937500 1.000000
vt 0.937500 0.500000
vt 0.906250 1.000000
vt 0.906250 0.500000
vt 0.875000 1.000000
vt 0.875000 0.500000
vt 0.843750 1.000000
vt 0.843750 0.500000
vt 0.812500 1.000000
vt 0.812500 0.500000
vt 0.781250 1.000000
vt 0.781250 0.500000
vt 0.750000 1.000000
vt 0.750000 0.500000
vt 0.718750 1.000000
vt 0.718750 0.500000
vt 0.687500 1.000000
vt 0.687500 0.500000
vt 0.656250 1.000000
vt 0.656250 0.500000
vt 0.625000 1.000000
vt 0.625000 0.500000
vt 0.593750 1.000000
vt 0.593750 0.500000
vt 0.562500 1.000000
vt 0.562500 0.500000
vt 0.531250 1.000000
vt 0.531250 0.500000
vt 0.500000 1.000000
vt 0.500000 0.500000
vt 0.468750 1.000000
vt 0.468750 0.500000
vt 0.437500 1.000000
vt 0.437500 0.500000
vt 0.406250 1.000000
vt 0.406250 0.500000
vt 0.375000 1.000000
vt 0.375000 0.500000
vt 0.343750 1.000000
vt 0.343750 0.500000
vt 0.312500 1.000000
vt 0.312500 0.500000
vt 0.281250 1.000000
vt 0.281250 0.500000
vt 0.250000 1.000000
vt 0.250000 0.500000
vt 0.218750 1.000000
vt 0.218750 0.500000
vt 0.187500 1.000000
vt 0.187500 0.500000
vt 0.156250 1.000000
vt 0.156250 0.500000
vt 0.125000 1.000000
vt 0.125000 0.500000
vt 0.093750 1.000000
vt 0.093750 0.500000
vt 0.062500 1.000000
vt 0.062500 0.500000
vt 0.296822 0.485388
vt 0.250000 0.490000
vt 0.203178 0.485388
vt 0.158156 0.471731
vt 0.116663 0.449553
vt 0.080294 0.419706
vt 0.050447 0.383337
vt 0.028269 0.341844
vt 0.014612 0.296822
vt 0.010000 0.250000
vt 0.014612 0.203178
vt 0.028269 0.158156
vt 0.050447 0.116663
vt 0.080294 0.080294
vt 0.116663 0.050447
vt 0.158156 0.028269
vt 0.203178 0.014612
vt 0.250000 0.010000
vt 0.296822 0.014612
vt 0.341844 0.028269
vt 0.383337 0.050447
vt 0.419706 0.080294
vt 0.449553 0.116663
vt 0.471731 0.158156
vt 0.485388 0.203178
vt 0.490000 0.250000
vt 0.485388 0.296822
vt 0.471731 0.341844
vt 0.449553 0.383337
vt 0.419706 0.419706
vt 0.383337 0.449553
vt 0.341844 0.471731
vt 0.031250 1.000000
vt 0.031250 0.500000
vt 0.000000 1.000000
vt 0.000000 0.500000
vt 0.750000 0.490000
vt 0.796822 0.485388
vt 0.841844 0.471731
vt 0.883337 0.449553
vt 0.919706 0.419706
vt 0.949553 0.383337
vt 0.971731 0.341844
vt 0.985388 0.296822
vt 0.990000 0.250000
vt 0.985388 0.203178
vt 0.971731 0.158156
vt 0.949553 0.116663
vt 0.919706 0.080294
vt 0.883337 0.050447
vt 0.841844 0.028269
vt 0.796822 0.014612
vt 0.750000 0.010000
vt 0.703178 0.014612
vt 0.658156 0.028269
vt 0.616663 0.050447
vt 0.580294 0.080294
vt 0.550447 0.116663
vt 0.528269 0.158156
vt 0.514612 0.203178
vt 0.510000 0.250000
vt 0.514612 0.296822
vt 0.528269 0.341844
vt 0.550447 0.383337
vt 0.580294 0.419706
vt 0.616663 0.449553
vt 0.658156 0.471731
vt 0.703178 0.485388
s 0
usemtl Material.002
f 25/43/19 26/44/19 28/45/19 27/46/19
f 27/46/20 28/45/20 30/47/20 29/48/20
f 29/48/21 30/47/21 32/49/21 31/50/21
f 31/50/22 32/49/22 34/51/22 33/52/22
f 33/52/23 34/51/23 36/53/23 35/54/23
f 35/54/24 36/53/24 38/55/24 37/56/24
f 37/56/25 38/55/25 40/57/25 39/58/25
f 39/58/26 40/57/26 42/59/26 41/60/26
f 41/60/27 42/59/27 44/61/27 43/62/27
f 43/62/28 44/61/28 46/63/28 45/64/28
f 45/64/29 46/63/29 48/65/29 47/66/29
f 47/66/30 48/65/30 50/67/30 49/68/30
f 49/68/31 50/67/31 52/69/31 51/70/31
f 51/70/32 52/69/32 54/71/32 53/72/32
f 53/72/33 54/71/33 56/73/33 55/74/33
f 55/74/34 56/73/34 58/75/34 57/76/34
f 57/76/35 58/75/35 60/77/35 59/78/35
f 59/78/36 60/77/36 62/79/36 61/80/36
f 61/80/37 62/79/37 64/81/37 63/82/37
f 63/82/38 64/81/38 66/83/38 65/84/38
f 65/84/39 66/83/39 68/85/39 67/86/39
f 67/86/40 68/85/40 70/87/40 69/88/40
f 69/88/41 70/87/41 72/89/41 71/90/41
f 71/90/42 72/89/42 74/91/42 73/92/42
f 73/92/43 74/91/43 76/93/43 75/94/43
f 75/94/44 76/93/44 78/95/44 77/96/44
f 77/96/45 78/95/45 80/97/45 79/98/45
f 79/98/46 80/97/46 82/99/46 81/100/46
f 81/100/47 82/99/47 84/101/47 83/102/47
f 83/102/48 84/101/48 86/103/48 85/104/48
f 28/105/49 26/106/49 88/107/49 86/108/49 84/109/49 82/110/49 80/111/49 78/112/49 76/113/49 74/114/49 72/115/49 70/116/49 68/117/49 66/118/49 64/119/49 62/120/49 60/121/49 58/122/49 56/123/49 54/124/49 52/125/49 50/126/49 48/127/49 46/128/49 44/129/49 42/130/49 40/131/49 38/132/49 36/133/49 34/134/49 32/135/49 30/136/49
f 85/104/50 86/103/50 88/137/50 87/138/50
f 87/138/51 88/137/51 26/139/51 25/140/51
f 25/141/52 27/142/52 29/143/52 31/144/52 33/145/52 35/146/52 37/147/52 39/148/52 41/149/52 43/150/52 45/151/52 47/152/52 49/153/52 51/154/52 53/155/52 55/156/52 57/157/52 59/158/52 61/159/52 63/160/52 65/161/52 67/162/52 69/163/52 71/164/52 73/165/52 75/166/52 77/167/52 79/168/52 81/169/52 83/170/52 85/171/52 87/172/52
o XO3
v -0.228971 0.642221 -0.205382
v -1.084826 0.642221 -0.205382
v -0.228971 0.657833 -0.203845
v -1.084826 0.657834 -0.203845
v -0.228971 0.672846 -0.199291
v -1.084826 0.672846 -0.199291
v -0.228971 0.686682 -0.191895
v -1.084826 0.686682 -0.191895
v -0.228971 0.698809 -0.181943
v -1.084826 0.698809 -0.181943
v -0.228971 0.708761 -0.169816
v -1.084826 0.708761 -0.169816
v -0.228971 0.716156 -0.155980
v -1.084826 0.716156 -0.155981
v -0.228971 0.720710 -0.140968
v -1.084826 0.720710 -0.140968
v -0.228971 0.722248 -0.125355
v -1.084826 0.722248 -0.125356
v -0.228971 0.720710 -0.109743
v -1.084826 0.720710 -0.109743
v -0.228971 0.716156 -0.094731
v -1.084826 0.716156 -0.094731
v -0.228971 0.708761 -0.080895
v -1.084826 0.708761 -0.080895
v -0.228971 0.698809 -0.068768
v -1.084826 0.698809 -0.068768
v -0.228971 0.686682 -0.058816
v -1.084826 0.686682 -0.058816
v -0.228971 0.672846 -0.051420
v -1.084826 0.672846 -0.051420
v -0.228971 0.657833 -0.046866
v -1.084826 0.657834 -0.046866
v -0.228971 0.642221 -0.045329
v -1.084826 0.642221 -0.045329
v -0.228971 0.626609 -0.046866
v -1.084826 0.626609 -0.046866
v -0.228971 0.611596 -0.051420
v -1.084826 0.611596 -0.051420
v -0.228971 0.597760 -0.058816
v -1.084826 0.597761 -0.058816
v -0.228971 0.585634 -0.068768
v -1.084826 0.585634 -0.068768
v -0.228971 0.575681 -0.080895
v -1.084826 0.575681 -0.080895
v -0.228971 0.568286 -0.094731
v -1.084826 0.568286 -0.094731
v -0.228971 0.563732 -0.109743
v -1.084826 0.563732 -0.109743
v -0.228971 0.562194 -0.125355
v -1.084826 0.562194 -0.125356
v -0.228971 0.563732 -0.140968
v -1.084826 0.563732 -0.140968
v -0.228971 0.568286 -0.155980
v -1.084826 0.568286 -0.155981
v -0.228971 0.575681 -0.169816
v -1.084826 0.575681 -0.169816
v -0.228971 0.585634 -0.181943
v -1.084826 0.585634 -0.181943
v -0.228971 0.597760 -0.191895
v -1.084826 0.597761 -0.191895
v -0.228971 0.611596 -0.199291
v -1.084826 0.611596 -0.199291
v -0.228971 0.626609 -0.203845
v -1.084826 0.626609 -0.203845
vn -0.0000 0.0980 -0.9952
vn -0.0000 0.2903 -0.9569
vn -0.0000 0.4714 -0.8819
vn -0.0000 0.6344 -0.7730
vn -0.0000 0.7730 -0.6344
vn -0.0000 0.8819 -0.4714
vn -0.0000 0.9569 -0.2903
vn -0.0000 0.9952 -0.0980
vn -0.0000 0.9952 0.0980
vn -0.0000 0.9569 0.2903
vn -0.0000 0.8819 0.4714
vn -0.0000 0.7730 0.6344
vn -0.0000 0.6344 0.7730
vn -0.0000 0.4714 0.8819
vn -0.0000 0.2903 0.9569
vn -0.0000 0.0980 0.9952
vn -0.0000 -0.0980 0.9952
vn -0.0000 -0.2903 0.9569
vn -0.0000 -0.4714 0.8819
vn -0.0000 -0.6344 0.7730
vn -0.0000 -0.7730 0.6344
vn -0.0000 -0.8819 0.4714
vn -0.0000 -0.9569 0.2903
vn -0.0000 -0.9952 0.0980
vn -0.0000 -0.9952 -0.0980
vn -0.0000 -0.9569 -0.2903
vn -0.0000 -0.8819 -0.4714
vn -0.0000 -0.7730 -0.6344
vn -0.0000 -0.6344 -0.7730
vn -0.0000 -0.4714 -0.8819
vn -1.0000 -0.0000 -0.0000
vn -0.0000 -0.2903 -0.9569
vn -0.0000 -0.0980 -0.9952
vn 1.0000 -0.0000 -0.0000
vt 1.000000 0.500000
vt 1.000000 1.000000
vt 0.968750 1.000000
vt 0.968750 0.500000
vt 0.937500 1.000000
vt 0.937500 0.500000
vt 0.906250 1.000000
vt 0.906250 0.500000
vt 0.875000 1.000000
vt 0.875000 0.500000
vt 0.843750 1.000000
vt 0.843750 0.500000
vt 0.812500 1.000000
vt 0.812500 0.500000
vt 0.781250 1.000000
vt 0.781250 0.500000
vt 0.750000 1.000000
vt 0.750000 0.500000
vt 0.718750 1.000000
vt 0.718750 0.500000
vt 0.687500 1.000000
vt 0.687500 0.500000
vt 0.656250 1.000000
vt 0.656250 0.500000
vt 0.625000 1.000000
vt 0.625000 0.500000
vt 0.593750 1.000000
vt 0.593750 0.500000
vt 0.562500 1.000000
vt 0.562500 0.500000
vt 0.531250 1.000000
vt 0.531250 0.500000
vt 0.500000 1.000000
vt 0.500000 0.500000
vt 0.468750 1.000000
vt 0.468750 0.500000
vt 0.437500 1.000000
vt 0.437500 0.500000
vt 0.406250 1.000000
vt 0.406250 0.500000
vt 0.375000 1.000000
vt 0.375000 0.500000
vt 0.343750 1.000000
vt 0.343750 0.500000
vt 0.312500 1.000000
vt 0.312500 0.500000
vt 0.281250 1.000000
vt 0.281250 0.500000
vt 0.250000 1.000000
vt 0.250000 0.500000
vt 0.218750 1.000000
vt 0.218750 0.500000
vt 0.187500 1.000000
vt 0.187500 0.500000
vt 0.156250 1.000000
vt 0.156250 0.500000
vt 0.125000 1.000000
vt 0.125000 0.500000
vt 0.093750 1.000000
vt 0.093750 0.500000
vt 0.062500 1.000000
vt 0.062500 0.500000
vt 0.296822 0.485388
vt 0.250000 0.490000
vt 0.203178 0.485388
vt 0.158156 0.471731
vt 0.116663 0.449553
vt 0.080294 0.419706
vt 0.050447 0.383337
vt 0.028269 0.341844
vt 0.014612 0.296822
vt 0.010000 0.250000
vt 0.014612 0.203178
vt 0.028269 0.158156
vt 0.050447 0.116663
vt 0.080294 0.080294
vt 0.116663 0.050447
vt 0.158156 0.028269
vt 0.203178 0.014612
vt 0.250000 0.010000
vt 0.296822 0.014612
vt 0.341844 0.028269
vt 0.383337 0.050447
vt 0.419706 0.080294
vt 0.449553 0.116663
vt 0.471731 0.158156
vt 0.485388 0.203178
vt 0.490000 0.250000
vt 0.485388 0.296822
vt 0.471731 0.341844
vt 0.449553 0.383337
vt 0.419706 0.419706
vt 0.383337 0.449553
vt 0.341844 0.471731
vt 0.031250 1.000000
vt 0.031250 0.500000
vt 0.000000 1.000000
vt 0.000000 0.500000
vt 0.750000 0.490000
vt 0.796822 0.485388
vt 0.841844 0.471731
vt 0.883337 0.449553
vt 0.919706 0.419706
vt 0.949553 0.383337
vt 0.971731 0.341844
vt 0.985388 0.296822
vt 0.990000 0.250000
vt 0.985388 0.203178
vt 0.971731 0.158156
vt 0.949553 0.116663
vt 0.919706 0.080294
vt 0.883337 0.050447
vt 0.841844 0.028269
vt 0.796822 0.014612
vt 0.750000 0.010000
vt 0.703178 0.014612
vt 0.658156 0.028269
vt 0.616663 0.050447
vt 0.580294 0.080294
vt 0.550447 0.116663
vt 0.528269 0.158156
vt 0.514612 0.203178
vt 0.510000 0.250000
vt 0.514612 0.296822
vt 0.528269 0.341844
vt 0.550447 0.383337
vt 0.580294 0.419706
vt 0.616663 0.449553
vt 0.658156 0.471731
vt 0.703178 0.485388
s 0
usemtl Material.004
f 89/173/53 90/174/53 92/175/53 91/176/53
f 91/176/54 92/175/54 94/177/54 93/178/54
f 93/178/55 94/177/55 96/179/55 95/180/55
f 95/180/56 96/179/56 98/181/56 97/182/56
f 97/182/57 98/181/57 100/183/57 99/184/57
f 99/184/58 100/183/58 102/185/58 101/186/58
f 101/186/59 102/185/59 104/187/59 103/188/59
f 103/188/60 104/187/60 106/189/60 105/190/60
f 105/190/61 106/189/61 108/191/61 107/192/61
f 107/192/62 108/191/62 110/193/62 109/194/62
f 109/194/63 110/193/63 112/195/63 111/196/63
f 111/196/64 112/195/64 114/197/64 113/198/64
f 113/198/65 114/197/65 116/199/65 115/200/65
f 115/200/66 116/199/66 118/201/66 117/202/66
f 117/202/67 118/201/67 120/203/67 119/204/67
f 119/204/68 120/203/68 122/205/68 121/206/68
f 121/206/69 122/205/69 124/207/69 123/208/69
f 123/208/70 124/207/70 126/209/70 125/210/70
f 125/210/71 126/209/71 128/211/71 127/212/71
f 127/212/72 128/211/72 130/213/72 129/214/72
f 129/214/73 130/213/73 132/215/73 131/216/73
f 131/216/74 132/215/74 134/217/74 133/218/74
f 133/218/75 134/217/75 136/219/75 135/220/75
f 135/220/76 136/219/76 138/221/76 137/222/76
f 137/222/77 138/221/77 140/223/77 139/224/77
f 139/224/78 140/223/78 142/225/78 141/226/78
f 141/226/79 142/225/79 144/227/79 143/228/79
f 143/228/80 144/227/80 146/229/80 145/230/80
f 145/230/81 146/229/81 148/231/81 147/232/81
f 147/232/82 148/231/82 150/233/82 149/234/82
f 92/235/83 90/236/83 152/237/83 150/238/83 148/239/83 146/240/83 144/241/83 142/242/83 140/243/83 138/244/83 136/245/83 134/246/83 132/247/83 130/248/83 128/249/83 126/250/83 124/251/83 122/252/83 120/253/83 118/254/83 116/255/83 114/256/83 112/257/83 110/258/83 108/259/83 106/260/83 104/261/83 102/262/83 100/263/83 98/264/83 96/265/83 94/266/83
f 149/234/84 150/233/84 152/267/84 151/268/84
f 151/268/85 152/267/85 90/269/85 89/270/85
f 89/271/86 91/272/86 93/273/86 95/274/86 97/275/86 99/276/86 101/277/86 103/278/86 105/279/86 107/280/86 109/281/86 111/282/86 113/283/86 115/284/86 117/285/86 119/286/86 121/287/86 123/288/86 125/289/86 127/290/86 129/291/86 131/292/86 133/293/86 135/294/86 137/295/86 139/296/86 141/297/86 143/298/86 145/299/86 147/300/86 149/301/86 151/302/86
